<svg width="12" height="12" viewBox="0 0 12 12" fill="none" xmlns="http://www.w3.org/2000/svg">
<g id="check-circle-solid" clip-path="url(#clip0_4621_31805)">
<path id="Icon" d="M6 0.625C3.03 0.625 0.625 3.03 0.625 6C0.625 8.97 3.03 11.375 6 11.375C8.97 11.375 11.375 8.97 11.375 6C11.375 3.03 8.97 0.625 6 0.625ZM8.515 4.765L5.515 7.765C5.37 7.91 5.13 7.91 4.985 7.765L3.485 6.265C3.34 6.12 3.34 5.88 3.485 5.735C3.63 5.59 3.87 5.59 4.015 5.735L5.25 6.97L7.985 4.235C8.13 4.09 8.37 4.09 8.515 4.235C8.66 4.38 8.66 4.62 8.515 4.765Z" fill="currentColor"/>
</g>
<defs>
<clipPath id="clip0_4621_31805">
<rect width="12" height="12" fill="none"/>
</clipPath>
</defs>
</svg>
