<svg width="22" height="22" viewBox="0 0 22 22" fill="none" xmlns="http://www.w3.org/2000/svg">
<path id="Icon" d="M15.2891 7V4.2C15.2891 3.0799 15.2891 2.51984 15.0711 2.09202C14.8793 1.71569 14.5734 1.40973 14.197 1.21799C13.7692 1 13.2092 1 12.0891 1H4.48906C3.36896 1 2.80891 1 2.38108 1.21799C2.00476 1.40973 1.6988 1.71569 1.50705 2.09202C1.28906 2.51984 1.28906 3.0799 1.28906 4.2V11.8C1.28906 12.9201 1.28906 13.4802 1.50705 13.908C1.6988 14.2843 2.00476 14.5903 2.38108 14.782C2.80891 15 3.36896 15 4.48906 15H7.28906M11.2891 14L13.2891 16L17.7891 11.5M10.4891 21H18.0891C19.2092 21 19.7692 21 20.197 20.782C20.5734 20.5903 20.8793 20.2843 21.0711 19.908C21.2891 19.4802 21.2891 18.9201 21.2891 17.8V10.2C21.2891 9.0799 21.2891 8.51984 21.0711 8.09202C20.8793 7.7157 20.5734 7.40973 20.197 7.21799C19.7692 7 19.2092 7 18.0891 7H10.4891C9.36896 7 8.80891 7 8.38108 7.21799C8.00476 7.40973 7.6988 7.7157 7.50705 8.09202C7.28906 8.51984 7.28906 9.0799 7.28906 10.2V17.8C7.28906 18.9201 7.28906 19.4802 7.50705 19.908C7.6988 20.2843 8.00476 20.5903 8.38108 20.782C8.80891 21 9.36896 21 10.4891 21Z" stroke="currentColor" stroke-width="1.39167" stroke-linecap="round" stroke-linejoin="round"/>
</svg>
