<?xml version="1.0" encoding="UTF-8"?><svg id="a" xmlns="http://www.w3.org/2000/svg" viewBox="0 0 38 40"><defs><style>.b{fill:none;stroke:#d0d5dd;stroke-width:1.5px;}.c{fill:#dc6803;}.c,.d{stroke-width:0px;}.d{fill:#fff;}</style></defs><path class="b" d="M6.75,4c0-1.79,1.46-3.25,3.25-3.25h16c.12,0,.24.05.32.13l10.79,10.79c.09.09.13.2.13.32v24c0,1.79-1.46,3.25-3.25,3.25H10c-1.79,0-3.25-1.46-3.25-3.25V4Z"/><path class="b" d="M26,.5v7.5c0,2.21,1.79,4,4,4h7.5"/><rect class="c" y="18" width="28" height="16" rx="2" ry="2"/><path class="d" d="M10.27,25.27h-1.56c-.03-.2-.09-.38-.17-.54-.09-.16-.2-.29-.34-.4-.14-.11-.3-.2-.48-.26-.18-.06-.37-.09-.58-.09-.38,0-.7.09-.98.28-.28.18-.5.45-.65.81-.15.35-.23.78-.23,1.29s.08.95.23,1.31c.16.35.37.62.65.8.28.18.6.27.97.27.21,0,.4-.03.57-.08.18-.05.33-.13.47-.24.14-.11.25-.24.34-.39.09-.15.16-.32.19-.52h1.56c-.04.34-.14.66-.3.97-.16.31-.37.58-.64.83-.27.24-.59.43-.96.58-.37.14-.79.21-1.25.21-.65,0-1.23-.15-1.74-.44-.51-.29-.91-.72-1.21-1.27-.29-.56-.44-1.23-.44-2.02s.15-1.47.45-2.02c.3-.56.7-.98,1.21-1.27.51-.29,1.09-.44,1.73-.44.42,0,.81.06,1.17.18.36.12.68.29.96.52.28.22.51.5.68.83.18.33.29.7.34,1.12ZM15.32,24.82c-.03-.29-.15-.51-.37-.67-.22-.16-.51-.24-.88-.24-.25,0-.46.04-.64.11-.17.07-.31.16-.4.29-.09.12-.13.26-.13.42,0,.13.02.24.08.34.06.1.15.18.25.25.11.07.23.13.37.18.14.05.29.09.45.13l.65.16c.32.07.61.17.87.28.27.12.49.26.69.44.19.17.34.38.45.61.11.23.16.5.17.81,0,.45-.12.83-.34,1.16-.22.32-.54.58-.97.76-.42.18-.92.27-1.52.27s-1.1-.09-1.53-.27c-.43-.18-.77-.45-1.02-.8-.24-.36-.37-.79-.38-1.32h1.49c.02.24.09.45.21.61.13.16.29.28.5.37.21.08.45.12.71.12s.49-.04.68-.11c.19-.08.34-.18.45-.32.11-.13.16-.29.16-.47,0-.16-.05-.3-.15-.41-.09-.11-.23-.21-.42-.28-.18-.08-.41-.15-.67-.21l-.79-.2c-.61-.15-1.1-.38-1.45-.7-.36-.32-.53-.74-.53-1.28,0-.44.11-.83.35-1.15.24-.33.57-.59.98-.77.42-.18.89-.28,1.42-.28s1.01.09,1.41.28c.4.18.72.44.94.77.22.33.34.71.35,1.14h-1.47ZM19.24,22.73l1.76,5.53h.07l1.76-5.53h1.7l-2.51,7.27h-1.98l-2.51-7.27h1.71Z"/></svg>