<svg width="20" height="20" viewBox="0 0 20 20" fill="none" xmlns="http://www.w3.org/2000/svg">
<g id="cyber-security">
<path stroke="currentColor" id="Icon" fill-rule="evenodd" clip-rule="evenodd" d="M1.68303 7.58321C1.58762 8.01947 1.53711 8.47471 1.53711 8.9435C1.53711 9.41167 1.59427 9.867 1.70028 10.3038H4.16678C4.10421 9.85928 4.068 9.40914 4.05903 8.95587C4.05886 8.94762 4.05886 8.93938 4.05903 8.93113C4.068 8.47786 4.10421 8.02772 4.16678 7.58321H1.68303ZM2.09996 6.33321H4.41579C4.71055 5.19566 5.18242 4.11346 5.81497 3.13186C4.1846 3.56659 2.82401 4.75187 2.09996 6.33321ZM7.19843 3.32602C6.53398 4.22938 6.03189 5.24882 5.71257 6.33321H8.6843C8.36497 5.24882 7.86288 4.22938 7.19843 3.32602ZM8.96621 7.58321H5.43065C5.35964 8.03049 5.31867 8.48499 5.30903 8.9435C5.31867 9.40201 5.35964 9.85651 5.43065 10.3038H8.96621C9.03723 9.85651 9.07819 9.40201 9.08783 8.9435C9.07819 8.48499 9.03723 8.03049 8.96621 7.58321ZM10.2301 10.3038C10.2927 9.85928 10.3289 9.40914 10.3378 8.95587C10.338 8.94762 10.338 8.93938 10.3378 8.93113C10.3289 8.47786 10.2927 8.02772 10.2301 7.58321H13.0103C13.1171 8.02047 13.1741 8.47588 13.1741 8.9435C13.1741 9.19215 13.3193 9.40688 13.5295 9.50754L13.1065 9.66113C13.0858 9.66864 13.065 9.67616 13.044 9.68371C12.7992 9.77185 12.5384 9.86576 12.3346 10.0396C12.1568 10.1914 12.018 10.3844 11.932 10.6031C11.8328 10.8556 11.8336 11.1337 11.8344 11.3855C11.8345 11.4074 11.8346 11.4292 11.8346 11.4507V13.3694C11.8346 14.5942 12.5211 15.5949 13.2257 16.3056C13.9387 17.0249 14.7507 17.5299 15.1776 17.771C15.1832 17.7742 15.1891 17.7776 15.1954 17.7812C15.271 17.8244 15.3963 17.8959 15.5602 17.93C15.6943 17.9578 15.8541 17.9578 15.9881 17.93C16.152 17.8959 16.2773 17.8244 16.3529 17.7812C16.3592 17.7776 16.3652 17.7742 16.3708 17.771C16.7976 17.5299 17.6096 17.0249 18.3226 16.3056C19.0272 15.5949 19.7138 14.5942 19.7138 13.3694V11.4507C19.7138 11.4292 19.7138 11.4074 19.7139 11.3855C19.7147 11.1337 19.7155 10.8556 19.6163 10.6031C19.5304 10.3844 19.3915 10.1914 19.2137 10.0396C19.01 9.86576 18.7491 9.77185 18.5043 9.68372C18.4834 9.67616 18.4625 9.66864 18.4418 9.66113L16.2203 8.85445C16.2146 8.85241 16.2086 8.85019 16.2022 8.84782C16.1377 8.8241 16.0331 8.78565 15.92 8.76983C15.8233 8.75629 15.7251 8.75629 15.6283 8.76983C15.5153 8.78565 15.4107 8.8241 15.3462 8.84782C15.3397 8.85019 15.3337 8.85241 15.3281 8.85445L14.3677 9.20316C14.4039 9.12408 14.4241 9.03614 14.4241 8.9435C14.4241 4.93444 11.0063 1.70085 7.19843 1.70085C3.35155 1.70085 0.287109 4.97413 0.287109 8.9435C0.287109 9.68229 0.404108 10.3958 0.616979 11.068C0.625407 11.105 0.637128 11.1408 0.651819 11.1751C1.6216 14.0787 4.3828 16.1861 7.19843 16.1861C8.83598 16.1861 9.93709 15.9275 10.6497 15.6462C11.0057 15.5056 11.2624 15.3603 11.4384 15.2412C11.5262 15.1817 11.5936 15.1291 11.6427 15.0873C11.6673 15.0664 11.6873 15.0483 11.703 15.0334C11.7063 15.0302 11.7094 15.0273 11.7124 15.0244C11.7164 15.0205 11.7201 15.0169 11.7235 15.0135L11.7313 15.0055L11.7347 15.0021L11.7362 15.0005L11.737 14.9997C11.7373 14.9993 11.7377 14.999 11.3094 14.5921L11.7377 14.999C11.9754 14.7487 11.9653 14.3531 11.715 14.1154C11.4684 13.8811 11.0806 13.8875 10.8419 14.1272C10.8403 14.1287 10.8374 14.1313 10.833 14.135C10.8184 14.1475 10.7875 14.1724 10.7378 14.206C10.6388 14.273 10.4633 14.3759 10.1907 14.4835C9.8253 14.6277 9.28117 14.7821 8.50805 14.8682C9.17781 13.8569 9.67495 12.7352 9.98108 11.5538H11.1536C11.4988 11.5538 11.7786 11.274 11.7786 10.9288C11.7786 10.5836 11.4988 10.3038 11.1536 10.3038H10.2301ZM8.6843 11.5538H5.71257C6.03189 12.6382 6.53398 13.6576 7.19843 14.561C7.86288 13.6576 8.36497 12.6382 8.6843 11.5538ZM5.7901 14.7164C5.17005 13.7451 4.70668 12.6764 4.41579 11.5538H2.15706C2.91738 13.0861 4.29111 14.2519 5.7901 14.7164ZM12.5486 6.33321H9.98108C9.68558 5.19284 9.2121 4.1081 8.57719 3.12457C10.2734 3.55495 11.752 4.75126 12.5486 6.33321ZM15.7742 10.0223C15.7682 10.0245 15.7618 10.0268 15.7547 10.0294L13.5332 10.8361C13.3705 10.8951 13.2767 10.9295 13.2081 10.9597C13.1663 10.9781 13.1495 10.9883 13.1451 10.9913M15.7742 10.0223C15.7801 10.0245 15.7866 10.0268 15.7936 10.0294L18.0151 10.8361C18.1778 10.8951 18.2716 10.9295 18.3403 10.9597C18.3821 10.9781 18.3988 10.9883 18.4032 10.9913C18.4259 11.0109 18.4419 11.0338 18.4517 11.0574C18.453 11.0632 18.456 11.0803 18.4585 11.1159C18.4634 11.1867 18.4638 11.2818 18.4638 11.4507V13.3694C18.4638 14.1138 18.0412 14.8139 17.4349 15.4256C16.8464 16.0193 16.1583 16.454 15.7742 16.6724C15.3901 16.454 14.7019 16.0193 14.1135 15.4256C13.5071 14.8139 13.0846 14.1138 13.0846 13.3694V11.4507C13.0846 11.2818 13.0849 11.1867 13.0898 11.1159C13.0923 11.0803 13.0953 11.0632 13.0966 11.0574M18.4511 11.055C18.4511 11.0549 18.4513 11.0553 18.4515 11.0562L18.4511 11.055ZM18.4044 10.9922C18.4044 10.9922 18.4041 10.9919 18.4034 10.9914L18.4044 10.9922ZM16.6375 11.1292C16.8776 11.3772 16.8712 11.7729 16.6233 12.013L16.0226 12.5946L16.8752 13.0074C17.0589 13.0964 17.1876 13.2694 17.2199 13.4709C17.2523 13.6724 17.1842 13.877 17.0376 14.019L15.7946 15.2226C15.5466 15.4627 15.151 15.4563 14.9108 15.2084C14.6707 14.9604 14.6771 14.5647 14.9251 14.3246L15.5258 13.7429L14.6732 13.3301C14.4895 13.2412 14.3608 13.0682 14.3284 12.8667C14.2961 12.6652 14.3641 12.4606 14.5107 12.3186L15.7537 11.115C16.0017 10.8749 16.3974 10.8812 16.6375 11.1292Z" fill="none"/>
</g>
</svg>
