<svg width="24" height="24" viewBox="0 0 24 24" fill="none" xmlns="http://www.w3.org/2000/svg">
<g id="nav_darkweb">
<path id="Icon" d="M14.17 18.195C14.17 19.7248 15.4102 20.965 16.94 20.965C18.4698 20.965 19.71 19.7248 19.71 18.195C19.71 16.6652 18.4698 15.425 16.94 15.425C15.4102 15.425 14.17 16.6652 14.17 18.195ZM14.17 18.195L9.79 18.195M20.94 12.885C18.3 11.355 15.24 10.475 11.97 10.475C8.7 10.475 5.64 11.355 3 12.885M19.44 11.775C19.44 11.775 19.05 7.71499 18.82 5.36499C18.59 3.01499 16.28 3.03499 16.28 3.03499H7.62C5.29 3.03499 5.22 5.36499 5.22 5.36499L4.58 11.775M9.78 18.195C9.78 19.7248 8.53983 20.965 7.01 20.965C5.48017 20.965 4.24 19.7248 4.24 18.195C4.24 16.6652 5.48017 15.425 7.01 15.425C8.53983 15.425 9.78 16.6652 9.78 18.195Z" stroke="#717680" stroke-width="1.67" stroke-miterlimit="10" stroke-linecap="round"/>
</g>
</svg>
