<svg width="20" height="20" viewBox="0 0 20 20" fill="none" xmlns="http://www.w3.org/2000/svg">
<g id="file-pdf">
<g id="Vector">
<path fill-rule="evenodd" clip-rule="evenodd" d="M7.29892 0.833313L11.6667 0.833314C11.8877 0.833314 12.0996 0.921111 12.2559 1.07739L17.2559 6.07739C17.4122 6.23367 17.5 6.44563 17.5 6.66665V14.3678C17.5 15.0386 17.5 15.5922 17.4632 16.0432C17.4249 16.5116 17.3428 16.9422 17.1367 17.3466C16.8171 17.9738 16.3072 18.4838 15.68 18.8033C15.2755 19.0094 14.8449 19.0915 14.3765 19.1298C13.9255 19.1667 13.3719 19.1667 12.7011 19.1666H7.2989C6.6281 19.1667 6.07447 19.1667 5.62348 19.1298C5.15506 19.0915 4.72448 19.0094 4.32003 18.8033C3.69283 18.4838 3.18289 17.9738 2.86331 17.3466C2.65724 16.9422 2.5751 16.5116 2.53683 16.0432C2.49998 15.5922 2.49999 15.0385 2.5 14.3677V5.63223C2.49999 4.96142 2.49998 4.40779 2.53683 3.95679C2.5751 3.48838 2.65724 3.05779 2.86331 2.65335C3.18289 2.02614 3.69283 1.5162 4.32003 1.19663C4.72448 0.99055 5.15507 0.908413 5.62348 0.870142C6.07448 0.833294 6.62811 0.833303 7.29892 0.833313ZM5.7592 2.53127C5.39385 2.56112 5.20702 2.61523 5.07668 2.68164C4.76308 2.84143 4.50811 3.09639 4.34832 3.41C4.28192 3.54033 4.22781 3.72717 4.19796 4.09251C4.16732 4.46759 4.16667 4.95283 4.16667 5.66665V14.3333C4.16667 15.0471 4.16732 15.5324 4.19796 15.9074C4.22781 16.2728 4.28192 16.4596 4.34832 16.59C4.50811 16.9036 4.76308 17.1585 5.07668 17.3183C5.20702 17.3847 5.39385 17.4388 5.7592 17.4687C6.13427 17.4993 6.61952 17.5 7.33333 17.5H12.6667C13.3805 17.5 13.8657 17.4993 14.2408 17.4687C14.6061 17.4388 14.793 17.3847 14.9233 17.3183C15.2369 17.1585 15.4919 16.9036 15.6517 16.59C15.7181 16.4596 15.7722 16.2728 15.802 15.9074C15.8327 15.5324 15.8333 15.0471 15.8333 14.3333V7.50004L12.9734 7.50004C12.7631 7.50007 12.5583 7.50009 12.3848 7.48592C12.1943 7.47036 11.9695 7.43363 11.7434 7.31838C11.4297 7.15859 11.1748 6.90363 11.015 6.59002C10.8997 6.36384 10.863 6.13906 10.8475 5.94857C10.8333 5.7751 10.8333 5.57027 10.8333 5.35994L10.8333 2.49998H7.33333C6.61952 2.49998 6.13427 2.50063 5.7592 2.53127ZM12.5 3.67849L14.6549 5.83337H13C12.7529 5.83337 12.6177 5.83273 12.5205 5.82479C12.5167 5.82447 12.513 5.82415 12.5095 5.82383C12.5092 5.82037 12.5089 5.81671 12.5086 5.81285C12.5006 5.71569 12.5 5.58048 12.5 5.33337V3.67849Z" fill="currentColor"/>
<path d="M12.3224 14.2551V10.3847H14.7926V11.0677H13.1078V12.2061H14.4853V12.8891H13.1078V14.2551H12.3224Z" fill="currentColor"/>
<path fill-rule="evenodd" clip-rule="evenodd" d="M12.3224 14.3385C12.2763 14.3385 12.239 14.3012 12.239 14.2551V10.3847C12.239 10.3387 12.2763 10.3014 12.3224 10.3014H14.7926C14.8386 10.3014 14.876 10.3387 14.876 10.3847V11.0677C14.876 11.1137 14.8386 11.151 14.7926 11.151H13.1912V12.1227H14.4853C14.5313 12.1227 14.5686 12.1601 14.5686 12.2061V12.8891C14.5686 12.9351 14.5313 12.9724 14.4853 12.9724H13.1912V14.2551C13.1912 14.3012 13.1539 14.3385 13.1078 14.3385H12.3224ZM13.1078 12.8891H14.4853V12.2061H13.1078V11.0677H14.7926V10.3847H12.3224V14.2551H13.1078V12.8891Z" fill="currentColor"/>
<path d="M9.99615 14.2551H8.69272V10.3847H9.99615C10.3301 10.3847 10.6052 10.4207 10.8215 10.4928C11.0378 10.5611 11.2047 10.6769 11.3223 10.84C11.4438 10.9994 11.5273 11.1891 11.5728 11.4092C11.6183 11.6255 11.6411 11.9082 11.6411 12.2573C11.6411 12.6064 11.6202 12.8967 11.5785 13.1282C11.5367 13.3558 11.4571 13.5607 11.3394 13.7429C11.2256 13.9212 11.0586 14.0521 10.8385 14.1356C10.6185 14.2153 10.3377 14.2551 9.99615 14.2551ZM10.8215 12.7183C10.8291 12.5969 10.8328 12.43 10.8328 12.2175C10.8328 12.0012 10.8253 11.8285 10.8101 11.6995C10.7949 11.5705 10.7589 11.4529 10.7019 11.3466C10.645 11.2404 10.5596 11.1683 10.4458 11.1303C10.3358 11.0886 10.1859 11.0677 9.99615 11.0677H9.47819V13.5721H9.99615C10.2807 13.5721 10.4875 13.5 10.6166 13.3558C10.7266 13.2382 10.7949 13.0257 10.8215 12.7183Z" fill="currentColor"/>
<path fill-rule="evenodd" clip-rule="evenodd" d="M8.69272 14.3385C8.6467 14.3385 8.60939 14.3012 8.60939 14.2551V10.3847C8.60939 10.3387 8.6467 10.3014 8.69272 10.3014H9.99615C10.335 10.3014 10.6196 10.3378 10.8472 10.4136C11.0776 10.4865 11.26 10.6115 11.3893 10.7904C11.5188 10.9606 11.6067 11.1619 11.6544 11.3922C11.7015 11.6164 11.7244 11.9054 11.7244 12.2573C11.7244 12.6092 11.7034 12.9049 11.6605 13.1429C11.6169 13.3806 11.5334 13.596 11.4095 13.7879C11.285 13.983 11.1029 14.1245 10.8681 14.2135L10.8669 14.214C10.6346 14.2981 10.3433 14.3385 9.99615 14.3385H8.69272ZM11.3394 13.7429C11.4571 13.5607 11.5367 13.3558 11.5785 13.1282C11.6202 12.8967 11.6411 12.6064 11.6411 12.2573C11.6411 11.9082 11.6183 11.6255 11.5728 11.4092C11.5273 11.1891 11.4438 10.9994 11.3223 10.84C11.2047 10.6769 11.0378 10.5611 10.8215 10.4928C10.6052 10.4207 10.3301 10.3847 9.99615 10.3847H8.69272V14.2551H9.99615C10.3377 14.2551 10.6185 14.2153 10.8385 14.1356C11.0586 14.0521 11.2256 13.9212 11.3394 13.7429ZM10.4162 11.2082C10.3197 11.1716 10.1812 11.151 9.99615 11.151H9.56153V13.4888H9.99615C10.2683 13.4888 10.4475 13.4198 10.5545 13.3003L10.5557 13.2989C10.6456 13.2028 10.7121 13.015 10.7384 12.7122C10.7457 12.5934 10.7495 12.4287 10.7495 12.2175C10.7495 12.0026 10.742 11.8336 10.7273 11.7092C10.7133 11.5898 10.6801 11.4823 10.6285 11.386C10.5816 11.2984 10.513 11.2406 10.4195 11.2094L10.4162 11.2082ZM10.8215 12.7183C10.7949 13.0257 10.7266 13.2382 10.6166 13.3558C10.4875 13.5 10.2807 13.5721 9.99615 13.5721H9.47819V11.0677H9.99615C10.1859 11.0677 10.3358 11.0886 10.4458 11.1303C10.5596 11.1683 10.645 11.2404 10.7019 11.3466C10.7589 11.4529 10.7949 11.5705 10.8101 11.6995C10.8253 11.8285 10.8328 12.0012 10.8328 12.2175C10.8328 12.43 10.8291 12.5969 10.8215 12.7183Z" fill="currentColor"/>
<path d="M6.76391 13.1282H6.12643V14.2551H5.34095V10.3847H6.76391C7.68219 10.3847 8.14133 10.8325 8.14133 11.728C8.14133 12.1795 8.0237 12.5267 7.78844 12.7696C7.55697 13.0086 7.21546 13.1282 6.76391 13.1282ZM6.12643 12.4565H6.75822C7.14906 12.4565 7.34448 12.2137 7.34448 11.728C7.34448 11.4889 7.29705 11.3182 7.20218 11.2157C7.10732 11.1095 6.95933 11.0563 6.75822 11.0563H6.12643V12.4565Z" fill="currentColor"/>
<path fill-rule="evenodd" clip-rule="evenodd" d="M6.20976 14.2551C6.20976 14.3012 6.17245 14.3385 6.12643 14.3385H5.34095C5.29493 14.3385 5.25762 14.3012 5.25762 14.2551V10.3847C5.25762 10.3387 5.29493 10.3014 5.34095 10.3014H6.76391C7.23538 10.3014 7.60438 10.4163 7.85516 10.6609C8.10632 10.9058 8.22467 11.2668 8.22467 11.728C8.22467 12.1937 8.10311 12.5645 7.84829 12.8276C7.59616 13.0879 7.22971 13.2115 6.76391 13.2115H6.20976V14.2551ZM6.12643 13.1282H6.76391C7.21546 13.1282 7.55697 13.0086 7.78844 12.7696C8.0237 12.5267 8.14133 12.1795 8.14133 11.728C8.14133 10.8325 7.68219 10.3847 6.76391 10.3847H5.34095V14.2551H6.12643V13.1282ZM7.14002 11.2712C7.06662 11.189 6.94567 11.1397 6.75822 11.1397H6.20976V12.3732H6.75822C6.93541 12.3732 7.05502 12.319 7.13299 12.2221C7.21374 12.1218 7.26114 11.9618 7.26114 11.728C7.26114 11.4961 7.21442 11.3516 7.14104 11.2723L7.14002 11.2712ZM6.12643 12.4565V11.0563H6.75822C6.95933 11.0563 7.10732 11.1095 7.20218 11.2157C7.29705 11.3182 7.34448 11.4889 7.34448 11.728C7.34448 12.2137 7.14906 12.4565 6.75822 12.4565H6.12643Z" fill="currentColor"/>
</g>
</g>
</svg>
