<svg width="20" height="20" viewBox="0 0 20 20" fill="none" xmlns="http://www.w3.org/2000/svg">
<path d="M12.2334 0.275391C12.5967 0.638672 12.6006 1.22461 12.2412 1.5918L18.417 7.76758C18.7842 7.4082 19.3701 7.41211 19.7334 7.77539C20.1006 8.14258 20.1006 8.73633 19.7334 9.09961L19.0811 9.75586L15.3584 13.4785L14.7334 14.1035C14.3662 14.4707 13.7725 14.4707 13.4092 14.1035C13.0576 13.752 13.042 13.1855 13.374 12.8184L7.19434 6.63867C6.82715 6.9668 6.26074 6.95508 5.90918 6.60352C5.54199 6.23633 5.54199 5.64258 5.90918 5.2793L6.53418 4.6543L10.2529 0.931641L10.9053 0.275391C11.2725 -0.0917969 11.8662 -0.0917969 12.2295 0.275391H12.2334ZM10.9131 2.91992L8.51855 5.31445L14.6943 11.4902L17.0889 9.0957L10.9131 2.91992ZM8.7334 9.94727L10.0576 11.2715L8.1123 13.2168L8.38574 13.4902C8.87402 13.9785 8.87402 14.7715 8.38574 15.2598L4.01074 19.6348C3.52246 20.123 2.72949 20.123 2.24121 19.6348L0.366211 17.7598C-0.12207 17.2715 -0.12207 16.4785 0.366211 15.9902L4.74121 11.6152C5.22949 11.127 6.02246 11.127 6.51074 11.6152L6.78418 11.8887L8.72949 9.94336L8.7334 9.94727ZM5.63184 13.3848L2.13965 16.877L3.13184 17.8691L6.62402 14.377L5.63184 13.3848Z" fill="currentColor"/>
</svg>
