<svg width="16" height="16" viewBox="0 0 16 16" fill="none" xmlns="http://www.w3.org/2000/svg">
<path d="M9.80275 0.977788C9.4458 0.620767 8.86611 0.620767 8.50916 0.977788L5.08243 4.40519C4.72548 4.76221 4.72548 5.34201 5.08243 5.69903L5.53932 6.15602C5.89628 6.51304 6.47596 6.51304 6.83291 6.15602L6.94714 6.04177L9.99693 9.0893L9.8827 9.20355C9.52575 9.56057 9.52575 10.1404 9.8827 10.4974L10.3396 10.9544C10.6966 11.3114 11.2762 11.3114 11.6332 10.9544L15.0599 7.52698C15.4169 7.16996 15.4169 6.59015 15.0599 6.23313L14.603 5.77615C14.2461 5.41913 13.6664 5.41913 13.3094 5.77615L13.1952 5.89039L10.1454 2.84001L10.2596 2.72576C10.6166 2.36874 10.6166 1.78894 10.2596 1.43192L9.80275 0.974931V0.977788ZM5.46222 9.20355C5.10527 8.84653 4.52558 8.84653 4.16863 9.20355L0.97035 12.4025C0.613399 12.7595 0.613399 13.3393 0.97035 13.6963L2.34104 15.0673C2.69799 15.4243 3.27768 15.4243 3.63463 15.0673L6.83291 11.8684C7.18987 11.5113 7.18987 10.9315 6.83291 10.5745L6.79294 10.5345L8.47203 8.85795L7.17844 7.56411L5.5022 9.24068L5.46222 9.20069V9.20355Z" fill="currentColor"/>
</svg>
