<svg width="12" height="12" viewBox="0 0 12 12" fill="none" xmlns="http://www.w3.org/2000/svg">
<g id="home-solid">
<path id="Icon" d="M11.6032 5.98926C11.6032 6.34075 11.3139 6.61609 10.986 6.61609H10.3688L10.3823 9.74439C10.3823 9.79711 10.3785 9.84983 10.3727 9.90256V10.2189C10.3727 10.6505 10.0275 11 9.60123 11H9.29265C9.27143 11 9.25022 11 9.229 10.998C9.202 11 9.175 11 9.148 11L8.5212 10.998H8.05832C7.63209 10.998 7.28687 10.6485 7.28687 10.217V9.74829V8.49854C7.28687 8.1529 7.01107 7.87366 6.66971 7.87366H5.43538C5.09401 7.87366 4.81822 8.1529 4.81822 8.49854V9.74829V10.217C4.81822 10.6485 4.47299 10.998 4.04676 10.998H3.58389H2.96865C2.93972 10.998 2.91079 10.9961 2.88187 10.9941C2.85872 10.9961 2.83558 10.998 2.81243 10.998H2.50385C2.07762 10.998 1.7324 10.6485 1.7324 10.217V8.02988C1.7324 8.0123 1.7324 7.99278 1.73433 7.9752V6.61414H1.11716C0.770009 6.61414 0.5 6.34075 0.5 5.98731C0.5 5.81156 0.557859 5.65534 0.692864 5.51865L5.63596 1.15622C5.77096 1.01953 5.92525 1 6.06026 1C6.19526 1 6.34955 1.03905 6.46527 1.13669L11.391 5.5206C11.5453 5.65729 11.6224 5.81351 11.6032 5.98926Z" fill="currentColor"/>
</g>
</svg>
