<svg width="24" height="24" viewBox="0 0 24 24" fill="none" xmlns="http://www.w3.org/2000/svg">
<path d="M22.574 11.0412L12.8166 2.27338C12.5874 2.07811 12.2818 2 12.0143 2C11.7469 2 11.4413 2.03905 11.1738 2.31244L1.38204 11.0373C1.11461 11.3107 1 11.6231 1 11.9746C1 12.6815 1.53486 13.2283 2.22254 13.2283H3.44508L3.44126 20.4339C3.44126 21.297 4.12512 21.9961 4.96944 21.9961C4.96944 21.9961 18.3754 22 18.4174 22H19.0287C19.873 22 20.5568 21.3009 20.5568 20.4378L20.5492 13.2322H21.7717C22.4212 13.2322 22.9943 12.6815 22.9943 11.9785C23.0325 11.627 22.8797 11.3146 22.574 11.0412ZM14.6313 8.95177C15.3908 8.95177 16.0067 9.58133 16.0067 10.3577C16.0067 11.1342 15.3908 11.7637 14.6313 11.7637C13.8718 11.7637 13.256 11.1342 13.256 10.3577C13.256 9.58133 13.8718 8.95177 14.6313 8.95177ZM11.8806 11.7637C12.4502 11.7637 12.9121 12.2359 12.9121 12.8182C12.9121 13.4005 12.4502 13.8727 11.8806 13.8727C11.311 13.8727 10.8491 13.4005 10.8491 12.8182C10.8491 12.2359 11.311 11.7637 11.8806 11.7637ZM9.1299 8.95177C9.8894 8.95177 10.5053 9.58133 10.5053 10.3577C10.5053 11.1342 9.8894 11.7637 9.1299 11.7637C8.37039 11.7637 7.75454 11.1342 7.75454 10.3577C7.75454 9.58133 8.37039 8.95177 9.1299 8.95177ZM9.47373 20.1996H8.78606C8.21643 20.1996 7.75454 19.7274 7.75454 19.1451V16.6034C7.18491 16.3948 6.79408 15.8168 6.84756 15.1623L6.93582 14.0793C7.00879 13.1677 7.75454 12.4667 8.64852 12.4667H9.61127C9.80879 12.4667 10.0002 12.5019 10.1786 12.5655C10.1679 12.6491 10.1614 12.7327 10.1614 12.8182C10.1614 13.3521 10.3956 13.8309 10.7631 14.1539C9.99599 14.5647 9.47373 15.3864 9.47373 16.3331V16.6846C9.47373 17.3083 9.7404 17.8711 10.1614 18.2578V19.4966C10.1614 19.6305 10.1786 19.7579 10.213 19.8809C10.0262 20.0785 9.76371 20.1996 9.47373 20.1996ZM12.9121 17.9016V19.4966C12.9121 19.8856 12.605 20.1996 12.2245 20.1996H11.5368C11.1563 20.1996 10.8491 19.8856 10.8491 19.4966V17.9016C10.4388 17.6579 10.1614 17.2052 10.1614 16.6846V16.3331C10.1614 15.3622 10.9309 14.5757 11.8806 14.5757C12.8304 14.5757 13.5998 15.3622 13.5998 16.3331V16.6846C13.5998 17.2052 13.3224 17.6598 12.9121 17.9016ZM16.4686 17.3876H16.0067V19.1451C16.0067 19.7274 15.5448 20.1996 14.9752 20.1996H14.2875C13.9975 20.1996 13.7351 20.0765 13.5482 19.8809C13.5826 19.7579 13.5998 19.6305 13.5998 19.4966V18.2578C14.0212 17.8711 14.2875 17.3111 14.2875 16.6846V16.3331C14.2875 15.3864 13.7652 14.5647 12.9981 14.1539C13.3656 13.8309 13.5998 13.3521 13.5998 12.8182C13.5998 12.7655 13.5975 12.7151 13.5933 12.6624C13.7996 12.537 14.0403 12.4667 14.294 12.4667H14.9687C15.5834 12.4667 16.1228 12.8819 16.2902 13.486L17.1303 16.4913C17.2548 16.9397 16.9263 17.3876 16.4686 17.3876Z" fill="black"/>
</svg>
