<svg viewBox="0 0 24 24" fill="currentColor" xmlns="http://www.w3.org/2000/svg">
<path d="M21.6333 3.82222C21.3111 3.2 20.8 2.68889 20.1778 2.36667C19.4667 2 18.5333 2 16.6667 2H7.33333C5.46667 2 4.53333 2 3.82222 2.36667C3.2 2.68889 2.68889 3.2 2.36667 3.82222C2 4.53333 2 5.46667 2 7.33333V16.6667C2 18.5333 2 19.4667 2.36667 20.1778C2.68889 20.8 3.2 21.3111 3.82222 21.6333C4.53333 22 5.46667 22 7.33333 22H16.6667C18.5333 22 19.4667 22 20.1778 21.6333C20.8 21.3111 21.3111 20.8 21.6333 20.1778C22 19.4667 22 18.5333 22 16.6667V7.33333C22 5.46667 22 4.53333 21.6333 3.82222ZM8.07778 18.3556C8.07778 19.1556 7.43333 19.8 6.63333 19.8H5.7C4.9 19.8 4.25556 19.1556 4.25556 18.3556V5.7C4.25556 4.9 4.9 4.25556 5.7 4.25556H6.63333C7.43333 4.25556 8.07778 4.9 8.07778 5.7V18.3556Z" />
</svg>
