<svg width="42" height="36" viewBox="0 0 42 36" fill="none" xmlns="http://www.w3.org/2000/svg">
<path d="M36.657 17.1334V9.45337C36.657 8.46671 36.657 7.61337 36.6303 6.89337C36.6836 6.62671 36.657 6.33337 36.577 6.06671C36.497 5.18671 36.337 4.36004 35.937 3.61337C35.297 2.38671 34.3103 1.37337 33.0836 0.760039C32.2836 0.360039 31.457 0.200039 30.5236 0.120039C29.6436 0.0400391 28.5503 0.0400391 27.2436 0.0400391H10.0703C8.76363 0.0400391 7.6703 0.0400391 6.7903 0.120039C5.88363 0.200039 5.0303 0.360039 4.2303 0.760039C3.00363 1.40004 1.9903 2.38671 1.37696 3.61337C0.976964 4.38671 0.816964 5.18671 0.736964 6.06671C0.656964 6.33337 0.630298 6.62671 0.683631 6.89337C0.656964 7.64004 0.656964 8.49337 0.656964 9.45337V20.0667C0.656964 21.4 0.656964 22.4667 0.736964 23.3734C0.816964 24.28 0.976964 25.1334 1.37696 25.9334C2.01696 27.16 3.00363 28.1734 4.2303 28.7867C5.0303 29.1867 5.85696 29.3467 6.7903 29.4267C7.6703 29.5067 8.76363 29.5067 10.0703 29.5067H22.657C24.097 33.2667 27.697 35.96 31.9636 35.96C37.4836 35.96 41.9636 31.48 41.9636 25.96C41.9636 22.12 39.777 18.84 36.6303 17.16L36.657 17.1334ZM33.377 16.0667C32.9236 16.0134 32.4703 15.9334 31.9903 15.9334C30.577 15.9334 29.217 16.2267 27.9903 16.7867L25.937 14.9467L33.377 9.74671V16.0934V16.0667ZM4.28363 5.10671C4.60363 4.49337 5.1103 3.98671 5.72363 3.66671C5.9903 3.53337 6.33696 3.42671 7.05696 3.37337C7.80363 3.32004 8.73696 3.32004 10.1503 3.32004H27.1636C28.577 3.32004 29.5103 3.32004 30.257 3.37337C30.977 3.42671 31.3503 3.53337 31.5903 3.66671C32.2036 3.98671 32.7103 4.49337 33.0303 5.10671C33.1103 5.26671 33.1903 5.50671 33.2436 5.82671L22.417 13.4C22.417 13.4 22.3903 13.4 22.3636 13.4267L20.7103 14.5734C19.5103 15.4 19.2703 15.56 19.0303 15.6134C18.7636 15.6667 18.497 15.6667 18.2303 15.6134C18.017 15.56 17.7503 15.4 16.5503 14.5734L14.897 13.4267C14.897 13.4267 14.8703 13.4267 14.8436 13.4L4.0703 5.82671C4.12363 5.48004 4.20363 5.26671 4.28363 5.10671ZM3.93696 21.64C3.93696 21.16 3.93696 20.6267 3.93696 20.0134V9.74671L11.377 14.9467L3.96363 21.64H3.93696ZM10.1503 26.2267C8.73696 26.2267 7.80363 26.2267 7.05696 26.1734C6.33696 26.12 5.96363 26.0134 5.72363 25.88C5.40363 25.72 5.1103 25.5067 4.84363 25.24L14.097 16.8667L14.7103 17.2934C14.7103 17.2934 14.8436 17.3734 14.897 17.4267C15.777 18.04 16.577 18.6 17.457 18.8134C18.2303 19 19.057 19 19.8303 18.8134C20.7103 18.6 21.5103 18.04 22.3903 17.4267C22.4436 17.3734 22.5236 17.3467 22.577 17.2934L23.1903 16.8667L25.1636 18.6534C23.217 20.4667 21.9636 23.0534 21.9636 25.9334C21.9636 26.04 21.9636 26.12 21.9903 26.2267H10.1503ZM37.1636 24.12L31.5903 29.6934C31.3236 29.96 30.977 30.0934 30.6036 30.0934C30.2303 30.0934 29.8836 29.9334 29.617 29.6934L26.817 26.8934C26.6303 26.7067 26.5236 26.4667 26.4703 26.2C26.4703 26.0934 26.417 26.0134 26.417 25.9067C26.417 25.5334 26.577 25.1867 26.817 24.92C27.3503 24.3867 28.257 24.3867 28.7903 24.92L30.577 26.7067L35.1636 22.12C35.537 21.7467 36.1236 21.64 36.6303 21.8C36.817 21.8534 37.0036 21.96 37.137 22.12C37.4036 22.3867 37.537 22.7334 37.537 23.1067C37.537 23.48 37.377 23.8267 37.137 24.0934L37.1636 24.12Z" fill="currentColor"/>
</svg>
