<svg width="42" height="36" viewBox="0 0 42 36" fill="none" xmlns="http://www.w3.org/2000/svg">
<path d="M35.9717 17.1648L36.0017 17.1348V9.45266C36.0017 8.46238 36.0017 7.61215 35.9717 6.89195C36.0217 6.62187 36.0017 6.33179 35.9217 6.06172C35.8417 5.18147 35.6817 4.35124 35.2817 3.61103C34.6417 2.38069 33.6517 1.37041 32.4317 0.76024C31.6317 0.360128 30.8017 0.200084 29.8717 0.120061C28.9917 0.0400391 27.9017 0.0400391 26.5917 0.0400391H9.41168C8.10168 0.0400391 7.01168 0.0400391 6.13168 0.120061C5.22168 0.200084 4.37168 0.360128 3.57168 0.76024C2.34168 1.40042 1.33168 2.39069 0.721676 3.61103C0.321676 4.38125 0.161676 5.18147 0.0816757 6.06172C0.0016757 6.33179 -0.0283243 6.62187 0.0316757 6.89195C0.0016757 7.64216 0.0016757 8.49239 0.0016757 9.45266V20.0656C0.0016757 21.406 0.0016757 22.4763 0.0816757 23.3765C0.161676 24.2868 0.321676 25.137 0.721676 25.9372C1.36168 27.1676 2.35168 28.1779 3.57168 28.788C4.37168 29.1882 5.20168 29.3482 6.13168 29.4282C7.01168 29.5082 8.10168 29.5082 9.41168 29.5082H22.0017C23.4417 33.2693 27.0417 35.96 31.3117 35.96C36.8317 35.96 41.3117 31.4788 41.3117 25.9573C41.3117 22.1162 39.1217 18.8353 35.9817 17.1548L35.9717 17.1648ZM3.63168 5.11145C3.95168 4.50128 4.46168 3.99114 5.07168 3.67105C5.34168 3.54101 5.68168 3.43098 6.40168 3.38097C7.15168 3.33096 8.08168 3.33096 9.49168 3.33096H26.5017C27.9117 3.33096 28.8517 3.33096 29.5917 3.38097C30.3117 3.43098 30.6817 3.54101 30.9217 3.67105C31.5317 3.99114 32.0417 4.50128 32.3617 5.11145C32.4417 5.2715 32.5217 5.51156 32.5717 5.83165L21.7417 13.4038C21.7417 13.4038 21.7117 13.4038 21.6917 13.4338L20.0417 14.5841C18.8417 15.4143 18.6017 15.5744 18.3617 15.6244C18.0917 15.6744 17.8317 15.6744 17.5617 15.6244C17.3517 15.5744 17.0817 15.4143 15.8817 14.5841L14.2317 13.4338C14.2317 13.4338 14.2017 13.4338 14.1817 13.4038L3.41168 5.83165C3.46168 5.48155 3.54168 5.2715 3.62168 5.11145H3.63168ZM3.31168 21.6461H3.28168V9.75274L10.7217 14.9542L3.31168 21.6461ZM21.3117 25.9372C21.3117 26.0473 21.3117 26.1273 21.3417 26.2273H9.50168C8.09168 26.2273 7.15168 26.2273 6.41168 26.1773C5.69168 26.1273 5.32168 26.0173 5.08168 25.8872C4.76168 25.7272 4.47168 25.5171 4.20168 25.2471L13.4517 16.8747L14.0617 17.3048C14.0617 17.3048 14.1917 17.3849 14.2517 17.4349C15.1317 18.0451 15.9317 18.6052 16.8117 18.8253C17.5817 19.0153 18.4117 19.0153 19.1817 18.8253C20.0617 18.6152 20.8617 18.0551 21.7417 17.4349C21.7917 17.3849 21.8717 17.3549 21.9317 17.3048L22.5417 16.8747L24.5117 18.6652C22.5617 20.4757 21.3117 23.0664 21.3117 25.9473V25.9372ZM32.7217 9.75274V16.0745C32.2717 16.0245 31.8117 15.9445 31.3317 15.9445C29.9217 15.9445 28.5617 16.2345 27.3317 16.7947L25.2817 14.9542L32.7217 9.75274ZM37.2617 26.5874C37.1917 26.7575 37.0917 26.9075 36.9617 27.0376L32.3917 31.6088C32.1217 31.8789 31.7617 32.0189 31.4017 32.0189C31.0417 32.0189 30.6817 31.8789 30.4117 31.6088C29.8617 31.0587 29.8617 30.1784 30.4117 29.6283L32.5917 27.4477H26.8317C26.0617 27.4477 25.4317 26.8175 25.4317 26.0473C25.4317 25.2771 26.0617 24.6469 26.8317 24.6469H32.5917L30.4117 22.4663C29.8617 21.9161 29.8617 21.0359 30.4117 20.4857C30.9617 19.9356 31.8417 19.9356 32.3917 20.4857L36.9617 25.057C37.0917 25.187 37.2017 25.3471 37.2617 25.5071C37.3217 25.6672 37.3717 25.8572 37.3717 26.0473C37.3717 26.2373 37.3317 26.4174 37.2617 26.5874Z" fill="currentColor"/>
</svg>
