<svg width="42" height="36" viewBox="0 0 42 36" fill="none" xmlns="http://www.w3.org/2000/svg">
<path d="M35.9532 17.1461V9.46037C35.9532 8.49965 35.9532 7.64569 35.9265 6.89846C35.9798 6.6316 35.9532 6.33805 35.8732 6.07118C35.7933 5.19053 35.6334 4.38994 35.2336 3.61603C34.6206 2.38845 33.6079 1.40105 32.3819 0.760574C31.5824 0.360277 30.7296 0.200158 29.8235 0.120098C28.944 0.0400391 27.8513 0.0400391 26.5454 0.0400391H9.40885C8.10296 0.0400391 7.01027 0.0400391 6.13079 0.120098C5.22466 0.200158 4.37183 0.360277 3.5723 0.760574C2.34636 1.37436 1.36028 2.38845 0.720655 3.61603C0.320891 4.36325 0.160985 5.19053 0.0810326 6.07118C0.00107985 6.33805 -0.0255711 6.6316 0.0277308 6.89846C0.00107985 7.619 0.00107985 8.47297 0.00107985 9.46037V20.0816C0.00107985 21.4159 0.00107985 22.4834 0.0810326 23.364C0.160985 24.298 0.320891 25.1253 0.720655 25.9259C1.33363 27.1535 2.34636 28.1409 3.5723 28.7814C4.37183 29.1817 5.22466 29.3418 6.13079 29.4219C7.01027 29.5019 8.10296 29.5019 9.40885 29.5019H21.9881C23.4272 33.2647 27.0518 35.96 31.3159 35.96C36.8326 35.96 41.31 31.4767 41.31 25.9526C41.31 22.1098 39.1246 18.8273 35.9532 17.1461ZM32.7018 16.0786C32.2487 16.0252 31.7956 15.9452 31.3159 15.9452C29.9034 15.9452 28.5709 16.2387 27.3449 16.7725L25.2928 14.9311L32.7284 9.72723V16.0786H32.7018ZM3.6256 5.11047C3.94542 4.49668 4.45178 3.98964 5.06475 3.6694C5.33126 3.53597 5.67773 3.42922 6.3973 3.37585C7.14353 3.32248 8.07631 3.32248 9.48881 3.32248H26.4921C27.9046 3.32248 28.8374 3.32248 29.5836 3.37585C30.3032 3.42922 30.6763 3.53597 30.9161 3.6694C31.5291 3.98964 32.0355 4.49668 32.3553 5.11047C32.4352 5.27059 32.5152 5.51077 32.5685 5.83101L21.7482 13.41C21.7482 13.41 21.7216 13.41 21.6949 13.4367L20.0426 14.5842C18.8433 15.4114 18.6034 15.5716 18.3636 15.6249C18.0971 15.6783 17.8305 15.6783 17.564 15.6249C17.3508 15.5716 17.0843 15.4114 15.885 14.5842L14.2327 13.4367C14.2327 13.4367 14.206 13.4367 14.1794 13.41H14.2327L3.4124 5.83101C3.4657 5.48408 3.54565 5.27059 3.6256 5.11047ZM3.27914 9.75392L10.6881 14.9578L3.27914 21.6561V9.75392ZM21.3218 25.9526C21.3218 25.9526 21.3485 26.1394 21.3485 26.2462H9.51546C8.10296 26.2462 7.17018 26.2462 6.42395 26.1928C5.70438 26.1394 5.35791 26.0327 5.0914 25.8992C4.74494 25.7391 4.45178 25.5256 4.21193 25.2588L13.4598 16.8792H13.4864L14.0994 17.3062C14.0994 17.3062 14.2327 17.3862 14.286 17.4396C15.1655 18.0534 15.965 18.6138 16.8445 18.8273C17.6173 19.0141 18.4435 19.0141 19.2164 18.8273C20.0959 18.6138 20.8954 18.0534 21.7749 17.4396C21.8282 17.3862 21.9614 17.3062 21.9614 17.3062L22.5744 16.8792L24.5199 18.6405C22.5478 20.4552 21.3218 23.0438 21.3218 25.9526ZM34.7539 31.37C34.7539 31.37 34.6206 31.4233 34.5673 31.4233C34.3275 31.4233 34.1143 31.2098 34.1143 30.9697C34.1143 30.8095 34.2209 30.6494 34.3275 30.516C34.5407 30.3025 34.8338 29.9022 34.8338 29.2084C34.8338 28.5145 34.514 27.9541 34.061 27.5538C33.6612 27.2069 33.1815 26.9934 32.6218 26.9934H30.4098V28.4611C30.4098 28.7547 30.2499 29.0216 29.9834 29.1283C29.7169 29.235 29.397 29.2084 29.1838 28.9949L26.119 26.2462L25.506 25.6857C25.3461 25.5523 25.2661 25.3388 25.2661 25.1253C25.2661 24.9118 25.3461 24.725 25.506 24.5649L28.3044 22.0564L29.2105 21.2558C29.4237 21.069 29.7435 21.0156 30.01 21.1224H30.0367C30.3032 21.2558 30.4631 21.5227 30.4631 21.8162V23.284H33.0482C34.0876 23.284 35.047 23.6843 35.74 24.3514C36.5661 25.0986 37.0992 26.1661 37.0992 27.3403C37.0992 29.9556 35.2336 31.1298 34.7805 31.37H34.7539Z" fill="currentColor"/>
</svg>
