<svg width="32" height="32" viewBox="0 0 32 32" fill="none" xmlns="http://www.w3.org/2000/svg">
<path fill-rule="evenodd" clip-rule="evenodd" d="M10.3009 6.18189H21.716C22.5917 6.18187 23.3159 6.18186 23.9061 6.23005C24.5195 6.28013 25.0855 6.38776 25.6177 6.65875C26.4416 7.07821 27.1114 7.74753 27.5311 8.57077C27.7924 9.08323 27.9019 9.62698 27.9544 10.2143C28.0129 10.3943 28.0232 10.5839 27.9887 10.7651C28.0083 11.2547 28.0083 11.8206 28.0083 12.4697V19.5246C28.0083 20.3997 28.0084 21.1234 27.9601 21.7131C27.91 22.3261 27.8023 22.8917 27.5311 23.4236C27.1114 24.2468 26.4416 24.9161 25.6177 25.3356C25.0855 25.6066 24.5195 25.7142 23.9061 25.7643C23.3159 25.8125 22.5917 25.8125 21.716 25.8124H10.3009C9.42512 25.8125 8.70095 25.8125 8.11075 25.7643C7.49731 25.7142 6.93135 25.6066 6.39912 25.3356C5.57528 24.9161 4.90549 24.2468 4.48573 23.4236C4.21454 22.8917 4.10683 22.3261 4.05671 21.7131C4.00849 21.1234 4.0085 20.3997 4.00852 19.5246V12.4697C4.00851 11.8206 4.0085 11.2547 4.02818 10.7651C3.99364 10.5839 4.00399 10.3943 4.06243 10.2143C4.11491 9.62698 4.22443 9.08323 4.48573 8.57077C4.90549 7.74753 5.57528 7.07821 6.39912 6.65875C6.93135 6.38776 7.49731 6.28013 8.11075 6.23005C8.70096 6.18186 9.42513 6.18187 10.3009 6.18189ZM6.23233 12.6911V19.4788C6.23233 19.8732 6.23249 20.2139 6.23569 20.5128L11.1164 16.1075L6.23233 12.6911ZM13.5153 15.073L6.32464 10.0431C6.36289 9.82764 6.41194 9.68792 6.46716 9.57964C6.67372 9.17454 7.00331 8.84518 7.4087 8.63877C7.57519 8.554 7.81593 8.48374 8.29184 8.44489C8.78074 8.40497 9.41364 8.40411 10.3467 8.40411H21.6702C22.6032 8.40411 23.2361 8.40497 23.725 8.44489C24.2009 8.48374 24.4417 8.554 24.6081 8.63877C25.0135 8.84518 25.3431 9.17454 25.5497 9.57964C25.6049 9.68792 25.654 9.82764 25.6922 10.0431L18.5015 15.073C18.4887 15.0816 18.4759 15.0905 18.4634 15.0997L17.3688 15.8653C16.5736 16.4216 16.4095 16.5146 16.2662 16.5503C16.0969 16.5925 15.9199 16.5925 15.7507 16.5503C15.6073 16.5146 15.4433 16.4216 14.648 15.8653L13.5534 15.0997C13.5409 15.0905 13.5282 15.0816 13.5153 15.073ZM12.9856 17.415L6.85349 22.9497C7.01463 23.1128 7.20179 23.2502 7.4087 23.3556C7.57519 23.4403 7.81593 23.5106 8.29184 23.5494C8.78074 23.5894 9.41364 23.5902 10.3467 23.5902H21.6702C22.6032 23.5902 23.2361 23.5894 23.725 23.5494C24.2009 23.5106 24.4417 23.4403 24.6081 23.3556C24.815 23.2502 25.0022 23.1128 25.1634 22.9497L19.0313 17.415L18.6441 17.6858C18.6015 17.7156 18.5593 17.7453 18.5174 17.7746C17.9257 18.1899 17.4015 18.5577 16.804 18.7066C16.2816 18.8367 15.7352 18.8367 15.2128 18.7066C14.6154 18.5577 14.0911 18.1899 13.4994 17.7746C13.4576 17.7453 13.4154 17.7156 13.3728 17.6858L12.9856 17.415ZM20.9004 16.1075L25.7812 20.5128C25.7844 20.2139 25.7845 19.8732 25.7845 19.4788V12.6911L20.9004 16.1075Z" fill="currentColor"/>
</svg>
