<svg width="12" height="12" viewBox="0 0 12 12" fill="none" xmlns="http://www.w3.org/2000/svg">
<g id="phone-solid">
<g id="Vector">
<path d="M4.19014 4.42668C4.53814 5.15149 5.01253 5.83081 5.61332 6.4316C6.21411 7.03238 6.89343 7.50678 7.61824 7.85478C7.68059 7.88471 7.71176 7.89968 7.7512 7.91118C7.89138 7.95204 8.06351 7.92269 8.18222 7.83768C8.21563 7.81376 8.24421 7.78518 8.30136 7.72803C8.47617 7.55322 8.56357 7.46582 8.65146 7.40868C8.9829 7.19318 9.41019 7.19318 9.74164 7.40868C9.82953 7.46582 9.91693 7.55322 10.0917 7.72803L10.1892 7.82546C10.4549 8.09118 10.5877 8.22404 10.6599 8.36673C10.8035 8.65051 10.8035 8.98565 10.6599 9.26943C10.5877 9.41212 10.4549 9.54498 10.1892 9.8107L10.1103 9.88952C9.84554 10.1543 9.71313 10.2867 9.53312 10.3879C9.33336 10.5001 9.02312 10.5807 8.79401 10.5801C8.58753 10.5795 8.44642 10.5394 8.1642 10.4593C6.6475 10.0288 5.21632 9.21657 4.02233 8.02258C2.82834 6.82859 2.0161 5.39742 1.58562 3.88072C1.50551 3.59849 1.46546 3.45738 1.46485 3.25091C1.46417 3.0218 1.54485 2.71155 1.65706 2.5118C1.75818 2.33178 1.89059 2.19938 2.1554 1.93457L2.23422 1.85575C2.49994 1.59003 2.6328 1.45717 2.77549 1.385C3.05927 1.24146 3.3944 1.24146 3.67818 1.38499C3.82087 1.45717 3.95373 1.59003 4.21945 1.85575L4.31689 1.95318C4.49169 2.12799 4.57909 2.21539 4.63624 2.30328C4.85173 2.63472 4.85173 3.06201 4.63624 3.39346C4.57909 3.48135 4.49169 3.56875 4.31689 3.74355C4.25973 3.80071 4.23115 3.82929 4.20723 3.86269C4.12223 3.98141 4.09288 4.15354 4.13374 4.29371C4.14524 4.33316 4.1602 4.36433 4.19014 4.42668Z" fill="currentColor"/>
<path fill-rule="evenodd" clip-rule="evenodd" d="M3.56535 1.60808C3.35251 1.50043 3.10116 1.50043 2.88832 1.60808C2.7903 1.65766 2.69061 1.75291 2.41099 2.03253L2.33218 2.11134C2.05972 2.3838 1.95576 2.49051 1.87502 2.63424C1.78394 2.79638 1.71429 3.06419 1.71485 3.25017C1.71534 3.41695 1.74475 3.52578 1.82612 3.81246C2.24526 5.2892 3.03603 6.68273 4.19911 7.84581C5.36218 9.00889 6.75572 9.79965 8.23246 10.2188C8.51913 10.3002 8.62796 10.3296 8.79475 10.3301C8.98072 10.3306 9.24853 10.261 9.41068 10.1699C9.55441 10.0892 9.66111 9.9852 9.93357 9.71274L10.0124 9.63392C10.292 9.35431 10.3873 9.25462 10.4368 9.15659C10.5445 8.94376 10.5445 8.69241 10.4368 8.47957C10.3873 8.38155 10.292 8.28186 10.0124 8.00224L9.91496 7.9048C9.73113 7.72098 9.66574 7.65753 9.60537 7.61827C9.35678 7.45665 9.03631 7.45665 8.78773 7.61827C8.72735 7.65753 8.66197 7.72097 8.47814 7.9048C8.47496 7.90799 8.4718 7.91115 8.46866 7.91429C8.42077 7.96225 8.37831 8.00475 8.32777 8.04095C8.14667 8.17063 7.89509 8.21352 7.68124 8.15119C7.62168 8.13382 7.5732 8.11052 7.51938 8.08464C7.51628 8.08315 7.51317 8.08165 7.51003 8.08015C6.76014 7.72011 6.05756 7.22939 5.43654 6.60837C4.81553 5.98736 4.32481 5.28478 3.96477 4.53488C3.96326 4.53175 3.96177 4.52863 3.96028 4.52554C3.9344 4.47172 3.91109 4.42324 3.89373 4.36368C3.83139 4.14983 3.87429 3.89825 4.00397 3.71715C4.04016 3.6666 4.08267 3.62415 4.13062 3.57626C4.13376 3.57312 4.13693 3.56996 4.14011 3.56678C4.32394 3.38295 4.38739 3.31756 4.42664 3.25719C4.58826 3.0086 4.58826 2.68813 4.42664 2.43955C4.38739 2.37917 4.32394 2.31379 4.14011 2.12996L4.04268 2.03253C3.76306 1.75291 3.66337 1.65766 3.56535 1.60808ZM2.66265 1.16191C3.01738 0.982489 3.43629 0.982489 3.79102 1.16191C3.97005 1.25246 4.12961 1.41215 4.36317 1.64589C4.37402 1.65676 4.38504 1.66778 4.39623 1.67897L4.49367 1.77641C4.50103 1.78377 4.50829 1.79103 4.51544 1.79817C4.66927 1.95192 4.77413 2.05673 4.84583 2.167C5.1152 2.58131 5.1152 3.11542 4.84583 3.52973C4.77413 3.64 4.66927 3.74482 4.51544 3.89856C4.50829 3.90571 4.50103 3.91296 4.49367 3.92033C4.4312 3.98279 4.41978 3.99528 4.4105 4.00824C4.37017 4.06456 4.35436 4.15724 4.37375 4.22375C4.37839 4.23965 4.38331 4.2514 4.41551 4.31847C4.75146 5.0182 5.20953 5.67425 5.7901 6.25482C6.37066 6.83538 7.02672 7.29345 7.72645 7.62941C7.79351 7.66161 7.80526 7.66653 7.82117 7.67117C7.88767 7.69055 7.98035 7.67475 8.03668 7.63442C8.04964 7.62514 8.06213 7.61371 8.12459 7.55125C8.13196 7.54388 8.13921 7.53662 8.14636 7.52947C8.3001 7.37565 8.40491 7.27078 8.51518 7.19909C8.92949 6.92971 9.4636 6.92971 9.87791 7.19909C9.98818 7.27078 10.093 7.37565 10.2467 7.52947C10.2539 7.53662 10.2611 7.54388 10.2685 7.55125L10.3659 7.64869C10.3771 7.65987 10.3882 7.67089 10.399 7.68175C10.6328 7.91531 10.7925 8.07487 10.883 8.2539C11.0624 8.60862 11.0624 9.02754 10.883 9.38227C10.7925 9.5613 10.6328 9.72086 10.399 9.95442C10.3882 9.96527 10.3771 9.97629 10.3659 9.98748L10.2871 10.0663C10.28 10.0734 10.2729 10.0805 10.2659 10.0875C10.0211 10.3324 9.86586 10.4877 9.65556 10.6058C9.41819 10.7392 9.06551 10.8309 8.79326 10.8301C8.5522 10.8294 8.38092 10.7807 8.11306 10.7047L8.09594 10.6998C6.53928 10.258 5.07046 9.42427 3.84555 8.19936C2.62065 6.97446 1.78694 5.50563 1.34512 3.94898C1.34349 3.94323 1.34187 3.93752 1.34026 3.93186C1.2642 3.664 1.21557 3.49272 1.21485 3.25165C1.21404 2.9794 1.30576 2.62672 1.43909 2.38936C1.55723 2.17906 1.71256 2.02377 1.95744 1.77897C1.96443 1.77198 1.97149 1.76492 1.97862 1.75779L2.05744 1.67897C2.06863 1.66778 2.07965 1.65676 2.0905 1.64589C2.32406 1.41215 2.48362 1.25246 2.66265 1.16191Z" fill="currentColor"/>
</g>
</g>
</svg>
