<svg width="20" height="20" viewBox="0 0 20 20" fill="none" xmlns="http://www.w3.org/2000/svg">
<g id="real-estate-01">
<path stroke="currentColor" id="Icon" fill-rule="evenodd" clip-rule="evenodd" d="M1.84131 2.48649C1.84131 2.19885 2.0745 1.96566 2.36215 1.96566H17.3621C17.6498 1.96566 17.883 2.19885 17.883 2.48649C17.883 2.51057 17.8813 2.53426 17.8782 2.55746C17.8813 2.58066 17.883 2.60434 17.883 2.6284V4.90375C17.883 4.9157 17.8826 4.92757 17.8818 4.93932C17.8826 4.9511 17.883 4.96299 17.883 4.97497C17.883 5.26262 17.6498 5.49581 17.3621 5.49581L17.3621 5.42458C17.3621 5.42458 17.3621 5.42458 17.3621 5.42458C17.3621 5.49581 17.3622 5.49581 17.3621 5.49581H14.9122V7.39192L15.181 7.39192C15.4638 7.39191 15.7069 7.39191 15.907 7.40825C16.1179 7.42548 16.3263 7.46343 16.5266 7.56547C16.8262 7.71812 17.0698 7.96171 17.2224 8.26131C17.3245 8.46157 17.3624 8.67005 17.3796 8.88092C17.396 9.08096 17.396 9.32405 17.396 9.60684V15.5505C17.396 15.8333 17.396 16.0763 17.3796 16.2764C17.3624 16.4873 17.3245 16.6957 17.2224 16.896C17.0698 17.1956 16.8262 17.4392 16.5266 17.5918C16.3263 17.6939 16.1179 17.7318 15.907 17.7491C15.7069 17.7654 15.4639 17.7654 15.1811 17.7654H4.59191C4.30911 17.7654 4.06603 17.7654 3.86598 17.7491C3.65511 17.7318 3.44664 17.6939 3.24638 17.5918C2.94678 17.4392 2.70319 17.1956 2.55054 16.896C2.44857 16.6959 2.41057 16.4877 2.39332 16.277C2.37697 16.0773 2.37698 15.8347 2.37699 15.5527V9.60542C2.37698 9.3231 2.37697 9.08034 2.39332 8.8805C2.41056 8.66977 2.44854 8.46148 2.55054 8.26131C2.70319 7.96171 2.94678 7.71813 3.24638 7.56547C3.44661 7.46345 3.65502 7.42548 3.86585 7.40825C4.06583 7.39191 4.30881 7.39191 4.59146 7.39192L4.77966 7.39192V5.49581H2.36214C2.07449 5.49581 1.84131 5.26262 1.84131 4.97497C1.84131 4.94331 1.84413 4.9123 1.84955 4.88219V2.57924C1.84414 2.54914 1.84131 2.51815 1.84131 2.48649ZM2.89122 3.00733V4.45414H16.8406L16.8413 3.00733H2.89122ZM13.8706 5.49581H5.82133V7.39192H9.86162L9.86214 7.91276L9.86211 8.43359H5.68799C5.59265 8.53968 5.45436 8.6064 5.30049 8.6064C5.14662 8.6064 5.00834 8.53968 4.91299 8.43359H4.61165C4.30318 8.43359 4.10316 8.434 3.95071 8.44646C3.80437 8.45842 3.74825 8.47884 3.71929 8.4936C3.61569 8.54639 3.53146 8.63062 3.47867 8.73422C3.46388 8.76324 3.44347 8.81932 3.43152 8.96544C3.41906 9.1177 3.41866 9.31746 3.41866 9.62561V15.5325C3.41866 15.8404 3.41906 16.0399 3.43152 16.192C3.44347 16.338 3.46386 16.394 3.47867 16.4231C3.53145 16.5267 3.61568 16.6109 3.71929 16.6637C3.74822 16.6784 3.80436 16.6989 3.95081 16.7108C4.10334 16.7233 4.30349 16.7237 4.61211 16.7237H15.1609C15.4695 16.7237 15.6696 16.7233 15.8222 16.7108C15.9686 16.6989 16.0247 16.6784 16.0537 16.6637C16.1573 16.6109 16.2415 16.5267 16.2943 16.4231C16.309 16.3942 16.3295 16.338 16.3414 16.1916C16.3539 16.039 16.3543 15.8389 16.3543 15.5303V9.62704C16.3543 9.31842 16.3539 9.11828 16.3414 8.96574C16.3295 8.81929 16.309 8.76315 16.2943 8.73422C16.2415 8.63062 16.1573 8.54639 16.0537 8.4936C16.0247 8.47886 15.9686 8.45842 15.8222 8.44646C15.6696 8.434 15.4695 8.43359 15.1609 8.43359H14.7789C14.6835 8.53968 14.5453 8.6064 14.3914 8.6064C14.2375 8.6064 14.0992 8.53968 14.0039 8.43359H9.86211L9.86214 7.91276L9.86162 7.39192H13.8706V5.49581ZM9.47027 9.2254C9.72694 9.15972 9.99595 9.15911 10.2529 9.22365C10.5467 9.29743 10.8041 9.48118 11.1008 9.69302C11.1213 9.70764 11.142 9.72239 11.1628 9.73724L13.5886 11.4637C13.823 11.6305 13.8777 11.9557 13.7109 12.19C13.5441 12.4244 13.2189 12.4791 12.9846 12.3123L12.9338 12.2762L12.9338 14.7683C12.9338 14.9216 12.9338 15.0675 12.9233 15.1905C12.9118 15.325 12.8851 15.4781 12.8042 15.6301C12.6909 15.8432 12.5124 16.0123 12.2979 16.117C12.147 16.1907 11.9956 16.2151 11.8602 16.2257C11.7347 16.2355 11.585 16.2355 11.4236 16.2355H8.3698C8.20843 16.2355 8.05866 16.2355 7.93316 16.2257C7.79776 16.2151 7.6464 16.1907 7.49546 16.117C7.28102 16.0123 7.1025 15.8432 6.98919 15.6301C6.90833 15.4781 6.88157 15.325 6.87009 15.1905C6.85961 15.0675 6.85962 14.9216 6.85964 14.7683L6.85964 12.2493L6.77372 12.311C6.54011 12.4788 6.21467 12.4255 6.04684 12.1919C5.879 11.9583 5.93231 11.6329 6.16592 11.465L8.56266 9.74306C8.58347 9.72811 8.60406 9.71326 8.62448 9.69856C8.92029 9.48539 9.17687 9.30049 9.47027 9.2254ZM7.90131 11.5009V14.7504C7.90131 14.9281 7.90175 15.0287 7.90799 15.102C7.91008 15.1264 7.91242 15.1413 7.91393 15.1492C7.92122 15.1595 7.93226 15.1701 7.94771 15.1785C7.95477 15.1802 7.97442 15.1841 8.01444 15.1872C8.0943 15.1934 8.20257 15.1938 8.38696 15.1938H8.41645L8.41645 13.0468C8.41642 12.9744 8.41639 12.891 8.42262 12.818C8.42981 12.7337 8.448 12.6178 8.51172 12.498C8.59487 12.3416 8.72528 12.2186 8.88054 12.1428C8.99783 12.0856 9.11035 12.0694 9.1933 12.0629C9.26659 12.0571 9.35097 12.0572 9.42744 12.0572H10.3343C10.4108 12.0572 10.4952 12.0571 10.5684 12.0629C10.6514 12.0694 10.7639 12.0856 10.8812 12.1428C11.0365 12.2186 11.1669 12.3416 11.25 12.498C11.3137 12.6178 11.3319 12.7337 11.3391 12.818C11.3453 12.891 11.3453 12.9744 11.3453 13.0468L11.3453 15.1938H11.4064C11.5908 15.1938 11.6991 15.1934 11.779 15.1872C11.819 15.1841 11.8386 15.1802 11.8457 15.1785C11.8611 15.1701 11.8722 15.1595 11.8795 15.1492C11.881 15.1413 11.8833 15.1264 11.8854 15.1019C11.8917 15.0287 11.8921 14.9281 11.8921 14.7504V11.5348L10.5588 10.5859C10.1636 10.3046 10.0768 10.2534 9.99917 10.2339C9.91031 10.2116 9.81729 10.2118 9.72853 10.2345C9.65104 10.2544 9.56442 10.306 9.17045 10.589L7.90131 11.5009ZM10.3036 15.1938V13.0988H9.45812V15.1938H10.3036Z" fill="none"/>
</g>
</svg>
