<svg width="24" height="25" viewBox="0 0 24 25" fill="none" xmlns="http://www.w3.org/2000/svg">
<g id="shield-crown-solid">
<path id="Vector" d="M20.79 5.27936C20.62 4.82936 20.33 4.41936 19.97 4.09936C19.56 3.73936 19.1 3.55936 18.26 3.24936L12.91 1.23936C12.67 1.14936 12.5 1.08936 12.28 1.04936C12.09 1.01936 11.9 1.01936 11.71 1.04936C11.49 1.07936 11.31 1.14936 11.09 1.23936L5.70999 3.24936C4.87999 3.55936 4.41999 3.72936 4.00999 4.09936C3.63999 4.41936 3.35999 4.82936 3.18999 5.27936C2.98999 5.79936 2.98999 6.28936 2.98999 7.17936V11.9594C2.98999 17.3094 8.43999 21.0694 10.79 22.4394C11.05 22.5894 11.25 22.7094 11.57 22.7794C11.7 22.8094 11.84 22.8194 11.98 22.8194C12.12 22.8194 12.27 22.8094 12.41 22.7794C12.72 22.7094 12.92 22.5894 13.19 22.4394C15.53 21.0694 20.99 17.3094 20.99 11.9594V7.17936C20.99 6.28936 20.99 5.79936 20.79 5.27936ZM16.28 9.90936H16.27L15.48 14.2594C15.38 14.7894 14.92 15.1694 14.39 15.1694H9.58999C9.04999 15.1694 8.59999 14.7894 8.49999 14.2594L7.70999 9.90936H7.69999C7.31999 9.90936 7.00999 9.59935 7.00999 9.21935C7.00999 8.83935 7.31999 8.52936 7.69999 8.52936C8.07999 8.52936 8.38999 8.83935 8.38999 9.21935C8.38999 9.37935 8.33999 9.51935 8.24999 9.63935L9.78999 10.8694C10.06 11.0894 10.47 10.9994 10.63 10.6794L11.62 8.69936C11.42 8.57936 11.29 8.35936 11.29 8.10936C11.29 7.72936 11.6 7.41936 11.98 7.41936C12.36 7.41936 12.67 7.72936 12.67 8.10936C12.67 8.35936 12.54 8.57936 12.34 8.69936L13.33 10.6794C13.49 10.9894 13.9 11.0794 14.17 10.8694L15.71 9.63935C15.62 9.51935 15.57 9.37935 15.57 9.21935C15.57 8.83935 15.88 8.52936 16.26 8.52936C16.64 8.52936 16.95 8.83935 16.95 9.21935C16.95 9.59935 16.64 9.90936 16.26 9.90936H16.28Z" fill="currentColor"/>
</g>
</svg>
