<svg width="24" height="24" viewBox="0 0 24 24" fill="none" xmlns="http://www.w3.org/2000/svg">
<g id="shield-tick">
<path id="Vector" d="M20.8 5.25006C20.63 4.80006 20.34 4.39006 19.98 4.07006C19.57 3.71006 19.11 3.53006 18.27 3.22006L12.91 1.21006C12.67 1.12006 12.5 1.06006 12.28 1.02006C12.09 0.990059 11.9 0.990059 11.71 1.02006C11.49 1.05006 11.31 1.12006 11.09 1.21006L5.70999 3.22006C4.87999 3.53006 4.41999 3.70006 4.00999 4.07006C3.63999 4.39006 3.35999 4.80006 3.18999 5.25006C2.98999 5.77006 2.98999 6.26006 2.98999 7.15006V11.9301C2.98999 17.2801 8.43999 21.0401 10.79 22.4101C11.05 22.5601 11.25 22.6801 11.57 22.7501C11.7 22.7801 11.84 22.7901 11.98 22.7901C12.12 22.7901 12.27 22.7801 12.41 22.7501C12.72 22.6801 12.92 22.5601 13.19 22.4101C15.53 21.0401 20.99 17.2801 20.99 11.9301V7.15006C20.99 6.26006 20.99 5.77006 20.79 5.25006H20.8ZM16.21 9.64006L11.71 14.1401C11.51 14.3401 11.26 14.4301 11 14.4301C10.74 14.4301 10.49 14.3301 10.29 14.1401L8.28999 12.1401C7.89999 11.7501 7.89999 11.1201 8.28999 10.7301C8.67999 10.3401 9.30999 10.3401 9.69999 10.7301L10.99 12.0201L14.78 8.23006C15.17 7.84006 15.8 7.84006 16.19 8.23006C16.58 8.62006 16.58 9.25006 16.19 9.64006H16.21Z" fill="currentColor"/>
</g>
</svg>
