<svg width="20" height="21" viewBox="0 0 20 21" fill="none" xmlns="http://www.w3.org/2000/svg">
<path fill-rule="evenodd" clip-rule="evenodd" d="M9.41706 2.07317C9.78571 1.8974 10.214 1.8974 10.5827 2.07317C10.9055 2.22708 11.0809 2.49303 11.1648 2.63021C11.252 2.77254 11.3408 2.95252 11.4245 3.12229C11.4291 3.13166 11.4337 3.14099 11.4383 3.15028L13.1976 6.71438L17.1638 7.2941C17.351 7.32142 17.5496 7.35039 17.7118 7.3894C17.8682 7.427 18.1752 7.51186 18.4211 7.77141C18.7019 8.06785 18.834 8.47519 18.7805 8.88003C18.7337 9.23449 18.5349 9.48333 18.4304 9.60554C18.3219 9.73233 18.1781 9.87229 18.0425 10.0043L15.1739 12.7984L15.8455 16.7141C15.8472 16.7243 15.849 16.7346 15.8508 16.7448C15.8828 16.9315 15.9168 17.1293 15.93 17.2957C15.9427 17.4561 15.9571 17.7744 15.7864 18.0887C15.5915 18.4476 15.2449 18.6994 14.8433 18.7738C14.4916 18.839 14.1933 18.7269 14.0448 18.6652C13.8906 18.6013 13.7129 18.5078 13.5454 18.4196C13.5361 18.4147 13.5269 18.4099 13.5177 18.4051L9.99986 16.5551L6.45434 18.4196C6.28676 18.5078 6.10913 18.6013 5.95495 18.6652C5.80639 18.7269 5.50813 18.839 5.15644 18.7738C4.75482 18.6994 4.40827 18.4476 4.21331 18.0887C4.04258 17.7744 4.05704 17.4561 4.06974 17.2957C4.08291 17.1293 4.11689 16.9315 4.14895 16.7449C4.15072 16.7346 4.15248 16.7243 4.15423 16.7141L4.82583 12.7984L1.97952 10.026C1.9721 10.0188 1.96465 10.0116 1.95717 10.0043C1.82157 9.87228 1.67781 9.73233 1.56933 9.60554C1.46478 9.48333 1.266 9.23449 1.21919 8.88003C1.16572 8.47519 1.2978 8.06785 1.57865 7.77141C1.82454 7.51186 2.13152 7.427 2.2879 7.3894C2.45014 7.35039 2.64867 7.32142 2.83593 7.2941C2.84625 7.29259 2.85654 7.29109 2.86679 7.28959L6.80211 6.71438L8.56139 3.15028C8.56598 3.14099 8.57058 3.13166 8.5752 3.12229C8.65895 2.95252 8.74773 2.77254 8.83488 2.63021C8.91886 2.49304 9.09425 2.22708 9.41706 2.07317Z" fill="currentColor"/>
</svg>
