<svg width="21" height="21" viewBox="0 0 21 21" fill="none" xmlns="http://www.w3.org/2000/svg">
<path d="M14.9514 8.40176C15.9685 5.94621 14.8024 3.13105 12.3469 2.11393C9.89134 1.0968 7.07618 2.26288 6.05906 4.71843C5.04193 7.17399 6.20801 9.98914 8.66356 11.0063C11.1191 12.0234 13.9343 10.8573 14.9514 8.40176Z" fill="currentColor"/>
<path d="M18.4561 16.66C18.3424 16.4588 18.1849 16.2488 18.0361 16.0475C18.0361 16.0388 18.0186 16.03 18.0099 16.0125C16.2861 13.7288 13.5649 12.25 10.5024 12.25C7.43988 12.25 4.71863 13.7288 2.99488 16.0125C2.99488 16.0213 2.97738 16.03 2.96863 16.0475C2.81988 16.24 2.66238 16.45 2.54863 16.66C2.40863 16.905 2.31238 17.185 2.31238 17.535C2.31238 17.815 2.39988 18.0688 2.50488 18.2788C2.60988 18.4888 2.76738 18.7075 2.98613 18.8825C3.27488 19.11 3.59863 19.1888 3.87863 19.2238C4.12363 19.25 4.42113 19.25 4.71863 19.25H16.3036C16.6011 19.25 16.8899 19.25 17.1436 19.2238C17.4236 19.1888 17.7474 19.11 18.0361 18.8825C18.2549 18.7075 18.4124 18.4888 18.5174 18.2788C18.6224 18.0775 18.7011 17.815 18.7099 17.535C18.7099 17.185 18.6136 16.905 18.4736 16.66H18.4561Z" fill="currentColor"/>
</svg>
