<svg width="24" height="25" viewBox="0 0 24 25" fill="currentColor" xmlns="http://www.w3.org/2000/svg">
<path d="M12.0244 1.51733C5.95608 1.51733 1.02441 6.449 1.02441 12.5173C1.02441 18.5857 5.95608 23.5173 12.0244 23.5173C18.0927 23.5173 23.0244 18.5857 23.0244 12.5173C23.0244 6.449 18.0927 1.51733 12.0244 1.51733ZM12.0244 6.559C14.0502 6.559 15.6911 8.19983 15.6911 10.2257C15.6911 12.2515 14.0502 13.8923 12.0244 13.8923C9.99858 13.8923 8.35775 12.2515 8.35775 10.2257C8.35775 8.19983 9.99858 6.559 12.0244 6.559ZM12.0244 21.684C9.66858 21.684 7.52358 20.7857 5.90108 19.3282C6.46025 18.0173 7.76191 17.1007 9.27441 17.1007H14.7744C16.2869 17.1007 17.5886 18.0173 18.1477 19.3282C16.5252 20.7857 14.3802 21.684 12.0244 21.684Z" fill="currentColor"/>
</svg>
