<svg width="16" height="16" viewBox="0 0 16 16" fill="none" xmlns="http://www.w3.org/2000/svg">
<path d="M11.3962 6.40133C12.1711 4.53044 11.2827 2.38555 9.41179 1.6106C7.5409 0.835653 5.39601 1.72409 4.62106 3.59499C3.84611 5.46589 4.73455 7.61077 6.60545 8.38572C8.47635 9.16067 10.6212 8.27223 11.3962 6.40133Z" fill="#475467"/>
<path d="M7.60925 10.7457L7.11073 9.95011H7.11341C6.94187 9.67807 7.14825 9.32905 7.4806 9.32905H8.53929C8.87164 9.32905 9.07802 9.67551 8.90648 9.95011L8.40796 10.7457L9.30048 13.9254L10.2654 10.1554C10.319 9.95011 10.528 9.81409 10.7451 9.86542C12.6213 10.3145 14.0123 11.9416 14.0123 13.8792C14.0123 14.3129 13.6451 14.667 13.1895 14.667H2.82771C2.37475 14.667 2.00488 14.3154 2.00488 13.8792C2.00488 11.9416 3.39592 10.3145 5.27209 9.86542C5.48918 9.81152 5.69824 9.94754 5.75185 10.1554L6.71673 13.9254L7.60925 10.7457Z" fill="currentColor"/>
</svg>
