 <svg
    width="20"
    height="20"
    viewBox="0 0 20 20"
    fill="none"
    xmlns="http://www.w3.org/2000/svg"
>
    <g id="x-circle-solid" clip-path="url(#clip0_4447_2543)">
    <path
        id="Vector"
        fill-rule="evenodd"
        clip-rule="evenodd"
        d="M0.833252 10C0.833252 4.93337 4.93325 0.833374 9.99992 0.833374C15.0666 0.833374 19.1666 4.93337 19.1666 10C19.1666 15.0667 15.0666 19.1667 9.99992 19.1667C4.93325 19.1667 0.833252 15.0667 0.833252 10ZM6.90825 6.90837C7.23325 6.58337 7.75825 6.58337 8.08325 6.90837L9.99158 8.81671L11.8999 6.90837C12.2249 6.58337 12.7499 6.58337 13.0749 6.90837C13.3999 7.23337 13.3999 7.75837 13.0749 8.08337L11.1666 9.99171L13.0749 11.9C13.3999 12.225 13.3999 12.75 13.0749 13.075C12.7499 13.4 12.2249 13.4 11.8999 13.075L9.99158 11.1667L8.08325 13.075C7.75825 13.4 7.23325 13.4 6.90825 13.075C6.58325 12.75 6.58325 12.225 6.90825 11.9L8.81658 9.99171L6.90825 8.08337C6.58325 7.75837 6.58325 7.23337 6.90825 6.90837Z"
        fill="currentColor"
    />
    </g>
    <defs>
    <clipPath id="clip0_4447_2543">
        <rect width="20" height="20" fill="white" />
    </clipPath>
    </defs>
</svg>