<svg width="47" height="41" viewBox="0 0 47 41" fill="none" xmlns="http://www.w3.org/2000/svg">
<ellipse cx="23.9031" cy="38.1141" rx="23.5698" ry="2.8861" fill="url(#paint0_radial_83_7946)"/>
<ellipse cx="23.9031" cy="38.114" rx="12.0254" ry="1.92406" fill="url(#paint1_radial_83_7946)"/>
<path d="M21.7215 8.82642L13.2593 17.2886C12.4994 18.0485 12.4994 19.2806 13.2593 20.0405L21.7215 28.5026C22.4814 29.2626 23.7135 29.2626 24.4734 28.5026L32.9355 20.0405C33.6955 19.2806 33.6955 18.0485 32.9355 17.2886L24.4734 8.82642C23.7135 8.06649 22.4814 8.06649 21.7215 8.82642Z" fill="url(#paint2_linear_83_7946)"/>
<path d="M35.483 8.34171C36.0524 7.77234 36.0524 6.84815 35.483 6.27878C34.9137 5.70941 33.9895 5.70941 33.4201 6.27878L32.3226 7.37626L29.6862 4.73984L30.7837 3.64236C31.353 3.07299 31.353 2.1488 30.7837 1.57943C30.2143 1.01006 29.2901 1.01006 28.7207 1.57943L27.6233 2.67691L26.2514 1.30506C24.5124 -0.433989 21.68 -0.436051 19.9389 1.30506L18.567 2.67691L17.4695 1.57943C16.9002 1.01006 15.976 1.01006 15.4066 1.57943C14.8372 2.1488 14.8372 3.07299 15.4066 3.64236L16.5041 4.73984L13.8677 7.37626L12.7702 6.27878C12.2008 5.70941 11.2766 5.70941 10.7072 6.27878C10.1379 6.84815 10.1379 7.77234 10.7072 8.34171L11.8047 9.43919L9.1683 12.0756L8.07082 10.9781C7.50146 10.4088 6.57726 10.4088 6.0079 10.9781C5.43853 11.5475 5.43853 12.4717 6.0079 13.0411L7.10537 14.1385L5.73353 15.5104C3.99448 17.2494 3.99242 20.0818 5.73353 21.8229L7.10537 23.1948L6.0079 24.2923C5.43853 24.8616 5.43853 25.7858 6.0079 26.3552C6.57726 26.9246 7.50146 26.9246 8.07082 26.3552L9.1683 25.2577L11.8047 27.8941L10.7072 28.9916C10.1379 29.561 10.1379 30.4852 10.7072 31.0546C11.2766 31.6239 12.2008 31.6239 12.7702 31.0546L13.8677 29.9571L16.5041 32.5935L15.4066 33.691C14.8372 34.2603 14.8372 35.1845 15.4066 35.7539C15.976 36.3233 16.9002 36.3233 17.4695 35.7539L18.567 34.6564L19.9389 36.0283C21.6779 37.7673 24.5103 37.7694 26.2514 36.0283L27.6233 34.6564L28.7207 35.7539C29.2901 36.3233 30.2143 36.3233 30.7837 35.7539C31.353 35.1845 31.353 34.2603 30.7837 33.691L29.6862 32.5935L32.3226 29.9571L33.4201 31.0546C33.9895 31.6239 34.9137 31.6239 35.483 31.0546C36.0524 30.4852 36.0524 29.561 35.483 28.9916L34.3855 27.8941L37.022 25.2577L38.1194 26.3552C38.6888 26.9246 39.613 26.9246 40.1824 26.3552C40.7517 25.7858 40.7517 24.8616 40.1824 24.2923L39.0849 23.1948L40.4567 21.8229C42.1958 20.0839 42.1979 17.2515 40.4567 15.5104L39.0849 14.1385L40.1824 13.0411C40.7517 12.4717 40.7517 11.5475 40.1824 10.9781C39.613 10.4088 38.6888 10.4088 38.1194 10.9781L37.022 12.0756L34.3855 9.43919L35.483 8.34171ZM39.0127 16.9544C39.9555 17.8972 39.9575 19.4341 39.0127 20.3789L24.8094 34.5822C23.8667 35.5249 22.3298 35.527 21.385 34.5822L7.1817 20.3789C6.23894 19.4361 6.23688 17.8993 7.1817 16.9544L21.385 2.75117C22.3277 1.80841 23.8646 1.80635 24.8094 2.75117L39.0127 16.9544Z" fill="url(#paint3_linear_83_7946)"/>
<defs>
<radialGradient id="paint0_radial_83_7946" cx="0" cy="0" r="1" gradientUnits="userSpaceOnUse" gradientTransform="translate(23.9031 38.1141) rotate(90) scale(2.8861 23.5698)">
<stop stop-color="#B83AF2" stop-opacity="0.25"/>
<stop offset="1" stop-color="#B83AF2" stop-opacity="0"/>
</radialGradient>
<radialGradient id="paint1_radial_83_7946" cx="0" cy="0" r="1" gradientUnits="userSpaceOnUse" gradientTransform="translate(23.9031 38.114) rotate(90) scale(1.92406 12.0254)">
<stop stop-color="#B83AF2" stop-opacity="0.25"/>
<stop offset="1" stop-color="#B83AF2" stop-opacity="0"/>
</radialGradient>
<linearGradient id="paint2_linear_83_7946" x1="35.0054" y1="2.85685" x2="22.1034" y2="19.1038" gradientUnits="userSpaceOnUse">
<stop stop-color="#4E35BD"/>
<stop offset="1" stop-color="#8241EC"/>
</linearGradient>
<linearGradient id="paint3_linear_83_7946" x1="35.0054" y1="2.85685" x2="22.1034" y2="19.1038" gradientUnits="userSpaceOnUse">
<stop stop-color="#4E35BD"/>
<stop offset="1" stop-color="#8241EC"/>
</linearGradient>
</defs>
</svg>
